<?xml version="1.0" standalone="no"?>
<!DOCTYPE svg PUBLIC "-//W3C//DTD SVG 20010904//EN"
 "http://www.w3.org/TR/2001/REC-SVG-20010904/DTD/svg10.dtd">
<svg version="1.0" xmlns="http://www.w3.org/2000/svg"
 width="512.000000pt" height="512.000000pt" viewBox="0 0 512.000000 512.000000"
 preserveAspectRatio="xMidYMid meet">
<metadata>
Created by potrace 1.14, written by Peter Selinger 2001-2017
</metadata>
<g transform="translate(0.000000,512.000000) scale(0.100000,-0.100000)"
fill="#000000" stroke="none">
<path d="M2521 4786 c-94 -126 -292 -206 -439 -179 -34 6 -83 22 -111 36 l-51
24 0 -575 c0 -567 0 -576 21 -620 40 -82 135 -131 319 -167 112 -22 178 -53
245 -116 l55 -52 48 48 c61 62 141 99 270 125 174 35 262 82 300 162 22 44 22
51 22 621 l0 576 -50 -25 c-28 -14 -78 -30 -111 -37 -148 -27 -352 56 -444
181 -16 23 -33 42 -36 42 -3 0 -20 -20 -38 -44z m159 -160 c0 -7 -68 -47 -77
-45 -26 5 -24 -3 5 -21 35 -21 61 -18 43 4 -8 9 -2 19 20 35 17 13 32 21 33
19 12 -15 26 -80 26 -122 -2 -127 -74 -221 -206 -266 -71 -25 -94 -25 -94 -2
1 33 56 157 70 158 8 1 20 2 25 3 6 1 -1 11 -14 21 -25 21 -61 27 -61 10 0 -5
4 -10 8 -10 5 0 -2 -30 -14 -67 -13 -38 -24 -79 -24 -92 0 -52 -22 -2 -27 63
-13 151 64 262 207 300 58 15 80 19 80 12z m-576 -126 l31 -1 -24 -19 c-17
-15 -22 -26 -17 -45 6 -23 5 -24 -19 -13 -19 9 -28 9 -37 0 -19 -19 -29 -14
-22 13 5 19 0 30 -17 45 l-24 19 32 1 c27 0 34 5 40 28 l7 27 10 -27 c8 -22
16 -28 40 -28z m220 0 l29 0 -21 -23 c-14 -15 -19 -30 -15 -45 5 -21 4 -22
-21 -11 -20 10 -29 10 -38 1 -19 -19 -26 -14 -20 14 4 20 -1 31 -19 45 l-24
19 32 0 c27 0 34 5 40 28 l7 27 10 -27 c8 -22 16 -28 40 -28z m569 0 l32 -1
-27 -20 c-23 -17 -26 -24 -18 -45 10 -26 2 -32 -18 -12 -9 9 -18 9 -38 -1 -25
-11 -26 -10 -21 11 4 15 -1 30 -15 45 l-21 23 26 0 c20 0 31 7 39 26 l12 26 9
-26 c7 -21 15 -26 40 -26z m220 0 l32 -1 -24 -19 c-17 -15 -22 -26 -17 -45 7
-27 -3 -32 -22 -13 -9 9 -18 9 -37 0 -24 -11 -25 -10 -19 13 5 19 0 30 -17 45
l-24 19 31 1 c26 0 33 5 39 28 l7 27 10 -27 c8 -23 16 -28 41 -28z m-1009
-200 l31 -1 -24 -19 c-17 -15 -22 -26 -17 -45 7 -28 4 -30 -24 -13 -15 10 -22
10 -32 0 -19 -19 -29 -14 -22 13 5 19 0 30 -17 45 l-24 19 32 1 c27 0 34 5 40
28 l7 27 10 -27 c8 -22 16 -28 40 -28z m220 0 l29 0 -21 -23 c-14 -15 -19 -30
-15 -45 5 -21 4 -22 -21 -11 -20 10 -29 10 -38 1 -20 -20 -28 -14 -18 12 8 21
5 28 -18 45 l-27 20 32 1 c27 0 34 5 40 28 l7 27 10 -27 c8 -22 16 -28 40 -28z
m789 0 l32 -1 -24 -19 c-17 -15 -22 -26 -17 -45 7 -27 -3 -32 -22 -13 -9 9
-18 9 -37 0 -24 -11 -25 -10 -19 13 5 19 0 30 -17 45 l-24 19 31 1 c26 0 33 5
39 28 l7 27 10 -27 c8 -23 16 -28 41 -28z m-219 0 l31 -1 -27 -20 c-23 -17
-26 -24 -18 -45 10 -26 2 -32 -18 -12 -9 9 -18 9 -38 -1 -25 -11 -26 -10 -21
11 4 15 -1 30 -15 45 l-21 23 26 0 c17 0 31 8 38 22 l12 23 10 -23 c7 -16 19
-22 41 -22z m226 -471 c0 -291 -1 -313 -19 -338 -31 -43 -107 -77 -235 -105
-130 -28 -210 -60 -269 -107 l-38 -30 -29 25 c-54 45 -153 86 -275 112 -130
28 -206 62 -239 107 -20 27 -21 43 -24 324 -2 163 -1 302 2 309 4 12 101 14
566 14 l560 0 0 -311z"/>
<path d="M2545 4550 c-3 -4 11 -17 30 -29 37 -22 61 -10 29 14 -25 18 -53 25
-59 15z"/>
<path d="M2506 4512 c-3 -5 12 -17 32 -26 42 -21 45 -21 50 -8 1 5 -13 17 -32
26 -39 18 -43 19 -50 8z"/>
<path d="M2475 4470 c-5 -8 36 -31 70 -39 26 -6 11 17 -20 32 -42 20 -42 20
-50 7z"/>
<path d="M2070 3985 c0 -58 2 -65 20 -65 19 0 20 -7 20 -160 0 -153 -1 -160
-20 -160 -18 0 -20 -7 -20 -65 l0 -65 130 0 130 0 0 65 0 65 -35 0 c-35 0 -35
0 -35 45 0 33 4 45 15 45 8 0 15 -4 15 -10 0 -6 28 -10 65 -10 l65 0 0 90 0
90 -65 0 c-51 0 -65 -3 -65 -15 0 -8 -7 -15 -15 -15 -11 0 -15 12 -15 50 l0
50 55 0 c30 0 55 -4 55 -10 0 -6 28 -10 65 -10 l65 0 0 75 0 75 -215 0 -215 0
0 -65z"/>
<path d="M2590 3985 c0 -58 2 -65 20 -65 19 0 20 -7 20 -160 0 -153 -1 -160
-20 -160 -18 0 -20 -7 -20 -65 l0 -65 130 0 130 0 0 65 0 65 -35 0 c-35 0 -35
0 -35 45 0 33 4 45 15 45 8 0 15 -4 15 -10 0 -6 28 -10 65 -10 l65 0 0 90 0
90 -65 0 c-51 0 -65 -3 -65 -15 0 -8 -7 -15 -15 -15 -11 0 -15 12 -15 50 l0
50 55 0 c30 0 55 -4 55 -10 0 -6 28 -10 65 -10 l65 0 0 75 0 75 -215 0 -215 0
0 -65z"/>
<path d="M1730 3860 c-378 -65 -861 -220 -1219 -391 l-124 -59 7 -89 c4 -49
13 -126 21 -172 8 -46 15 -85 15 -86 0 -2 -61 -3 -135 -3 l-135 0 0 -50 0 -50
2400 0 2400 0 0 50 0 50 -136 0 -137 0 7 33 c12 56 36 241 36 278 0 36 -2 38
-87 82 -355 182 -945 366 -1355 422 l-48 6 0 -177 c0 -202 -7 -237 -61 -298
-56 -63 -134 -100 -281 -131 -160 -35 -224 -68 -292 -153 l-49 -61 -29 44
c-59 89 -137 134 -284 164 -55 12 -113 25 -129 29 -56 17 -130 60 -167 99 -62
64 -68 89 -68 298 l0 185 -22 -1 c-13 0 -70 -9 -128 -19z m-30 -175 c0 -41 -2
-45 -27 -50 -331 -71 -815 -229 -1024 -336 l-36 -18 13 -88 c7 -48 16 -98 19
-111 5 -22 3 -23 -42 -20 l-48 3 -17 95 c-9 52 -17 113 -17 136 l-1 41 110 51
c198 93 402 169 640 237 126 36 390 101 423 104 4 1 7 -19 7 -44z m1880 10
c313 -71 654 -186 923 -312 l99 -47 -7 -70 c-4 -39 -12 -100 -18 -136 l-12
-65 -48 -3 -49 -3 7 31 c4 17 13 67 20 111 l13 81 -82 38 c-261 120 -613 233
-983 315 -20 5 -23 12 -23 50 0 42 2 45 23 40 12 -2 74 -16 137 -30z"/>
<path d="M160 2320 l0 -530 2400 0 2400 0 0 530 0 530 -2400 0 -2400 0 0 -530z
m1642 343 l68 -67 0 -100 c0 -95 -1 -101 -27 -128 l-27 -28 27 -28 c26 -27 27
-31 27 -152 l0 -124 -67 -68 -67 -68 -258 0 -258 0 0 95 c0 95 0 95 25 95 l25
0 0 225 0 225 -25 0 c-25 0 -25 0 -25 95 l0 95 257 0 257 0 68 -67z m1078 -43
l0 -110 -95 0 c-78 0 -95 3 -95 15 0 12 -14 15 -70 15 l-70 0 0 -65 c0 -51 3
-65 15 -65 8 0 15 7 15 15 0 12 17 15 95 15 l95 0 0 -125 0 -125 -95 0 c-78 0
-95 3 -95 15 0 8 -7 15 -15 15 -12 0 -15 -14 -15 -65 l0 -65 50 0 50 0 0 -95
0 -95 -190 0 -190 0 0 95 c0 95 0 95 25 95 l25 0 0 225 0 225 -25 0 c-25 0
-25 0 -25 95 l0 95 305 0 305 0 0 -110z m720 15 c0 -95 0 -95 -25 -95 l-25 0
0 -225 0 -225 70 0 c68 0 70 1 70 25 l0 25 100 0 100 0 0 -120 0 -120 -310 0
-310 0 0 95 c0 95 0 95 25 95 l25 0 0 225 0 225 -25 0 c-25 0 -25 0 -25 95 l0
95 165 0 165 0 0 -95z"/>
<path d="M1500 2485 l0 -55 53 0 c58 0 87 19 87 57 0 34 -32 53 -88 53 l-52 0
0 -55z"/>
<path d="M1500 2165 l0 -75 53 0 c66 0 87 19 87 77 0 54 -22 73 -88 73 l-52 0
0 -75z"/>
<path d="M160 1655 c0 -28 4 -36 23 -39 12 -3 231 -28 487 -56 256 -28 468
-52 471 -53 4 -1 35 -38 69 -82 340 -432 830 -858 1257 -1092 l91 -51 94 50
c186 100 454 289 651 461 206 179 482 467 610 638 l57 75 477 53 c263 29 486
55 495 57 13 4 18 16 18 40 l0 34 -2400 0 -2400 0 0 -35z m1349 -258 c214
-235 498 -496 711 -656 115 -86 314 -211 336 -211 19 0 150 76 254 148 230
158 492 392 771 689 l114 122 59 7 c55 7 58 6 48 -12 -34 -62 -395 -432 -577
-593 -224 -198 -449 -360 -593 -429 l-73 -35 -73 37 c-210 103 -486 319 -785
611 -172 168 -363 373 -383 409 -10 17 -7 18 48 12 59 -7 59 -8 143 -99z"/>
</g>
</svg>
